<?xml version="1.0" standalone="no"?>
<!DOCTYPE svg PUBLIC "-//W3C//DTD SVG 20010904//EN"
 "http://www.w3.org/TR/2001/REC-SVG-20010904/DTD/svg10.dtd">
<svg version="1.0" xmlns="http://www.w3.org/2000/svg"
 width="192.000000pt" height="192.000000pt" viewBox="0 0 192.000000 192.000000"
 preserveAspectRatio="xMidYMid meet">
<metadata>
Created by potrace 1.11, written by Peter Selinger 2001-2013
</metadata>
<g transform="translate(0.000000,192.000000) scale(0.100000,-0.100000)"
fill="#000000" stroke="none">
<path d="M512 1378 l3 -273 33 -3 32 -3 0 150 0 151 40 20 c46 23 98 26 126 6
17 -13 20 -31 24 -168 l5 -153 33 -3 32 -3 0 151 c0 166 -9 206 -55 236 -39
25 -113 23 -159 -4 -20 -12 -39 -22 -42 -22 -2 0 -4 43 -4 95 l0 95 -35 0 -35
0 2 -272z"/>
<path d="M970 1375 l0 -276 33 3 32 3 3 66 c2 52 7 71 23 85 20 18 21 18 41
-6 11 -14 47 -53 80 -87 51 -53 65 -63 94 -63 19 0 34 4 34 8 0 5 -41 53 -91
107 l-91 97 86 87 c47 47 86 90 86 94 0 4 -16 7 -35 7 -31 0 -45 -10 -128 -96
l-92 -96 -5 168 -5 169 -32 3 -33 3 0 -276z"/>
<path d="M167 1495 c-83 -29 -120 -88 -121 -190 -1 -115 46 -182 136 -192 39
-5 70 4 131 35 4 2 7 -13 7 -33 0 -27 -8 -44 -31 -67 -29 -30 -32 -30 -97 -25
-37 3 -77 9 -90 13 -22 6 -23 4 -20 -27 4 -39 21 -46 113 -48 82 -1 142 29
170 84 18 36 20 60 20 245 l0 205 -24 3 c-13 2 -28 -1 -33 -6 -6 -6 -26 -5
-55 4 -55 17 -58 17 -106 -1z m116 -56 l37 -10 0 -110 0 -110 -42 -19 c-52
-24 -80 -25 -118 -5 -53 27 -66 155 -23 214 36 48 77 60 146 40z"/>
<path d="M1360 1483 c1 -10 23 -99 49 -198 l48 -180 29 0 c28 0 30 3 80 150
l51 149 50 -149 c43 -131 53 -150 72 -153 13 -2 27 0 32 5 13 13 108 380 101
387 -3 4 -16 6 -29 6 -29 0 -32 -9 -68 -174 l-29 -129 -50 149 c-47 137 -53
149 -77 152 -25 3 -27 -2 -75 -149 l-49 -153 -36 150 -36 149 -31 3 c-26 3
-32 0 -32 -15z"/>
<path d="M1560 454 l0 -206 28 5 c15 3 45 1 67 -5 103 -27 177 69 154 200 -17
90 -90 126 -172 82 l-37 -20 0 75 c0 68 -2 75 -20 75 -19 0 -20 -7 -20 -206z
m181 37 c21 -17 24 -28 24 -90 0 -88 -21 -116 -88 -116 -75 1 -77 3 -77 103
l0 90 33 16 c43 21 80 20 108 -3z"/>
<path d="M1294 540 c-56 -23 -93 -104 -79 -177 14 -78 62 -115 149 -115 67 0
106 15 106 43 0 16 -4 19 -17 14 -56 -23 -77 -26 -109 -20 -48 8 -84 45 -84
85 l0 30 111 0 111 0 -7 36 c-10 55 -26 84 -56 100 -31 15 -92 18 -125 4z
m119 -51 c9 -12 17 -30 17 -40 0 -17 -8 -19 -85 -19 -91 0 -99 5 -69 48 32 46
103 52 137 11z"/>
<path d="M763 518 c4 -12 21 -78 38 -145 28 -109 34 -123 53 -123 19 0 27 16
60 117 l39 117 16 -45 c9 -24 27 -77 40 -116 20 -61 27 -73 45 -73 19 0 25 15
55 133 19 72 36 138 39 145 3 10 -2 13 -19 10 -25 -3 -24 -3 -54 -141 -10 -43
-21 -75 -25 -70 -4 4 -23 54 -41 111 -28 85 -37 102 -54 102 -17 0 -25 -18
-54 -110 -19 -61 -37 -110 -41 -110 -3 0 -17 48 -30 108 -23 97 -27 107 -49
110 -21 3 -23 1 -18 -20z"/>
</g>
</svg>
